<?xml version="1.0" encoding="iso-8859-1"?>
<!-- Generator: Adobe Illustrator 19.0.0, SVG Export Plug-In . SVG Version: 6.00 Build 0)  -->
<svg version="1.1" id="Capa_1" xmlns="http://www.w3.org/2000/svg" xmlns:xlink="http://www.w3.org/1999/xlink" x="0px" y="0px"
	 viewBox="0 0 487.302 487.302" style="enable-background:new 0 0 487.302 487.302;" xml:space="preserve">
<linearGradient id="SVGID_1_" gradientUnits="userSpaceOnUse" x1="243.6511" y1="495.0269" x2="243.6511" y2="21.0849" gradientTransform="matrix(1 0 0 -1 0 488.9897)">
	<stop  offset="0" style="stop-color:#00EFD1"/>
	<stop  offset="1" style="stop-color:#00ACEA"/>
</linearGradient>
<path style="fill:url(#SVGID_1_);" d="M243.494,0.001C109.02-0.003,0.004,109.007,0.001,243.481
	c-0.002,64.582,25.654,126.52,71.322,172.184c94.91,95.264,249.078,95.551,344.342,0.641s95.551-249.078,0.641-344.342
	c-0.213-0.214-0.427-0.428-0.641-0.641C370.104,25.509,308.107-0.173,243.494,0.001L243.494,0.001z M243.494,466.989
	C120.259,466.989,20,366.73,20,243.495S120.259,20.001,243.494,20.001S466.988,120.26,466.988,243.495
	S366.729,466.989,243.494,466.989z"/>
<g>
	
		<linearGradient id="SVGID_2_" gradientUnits="userSpaceOnUse" x1="139.7191" y1="495.0269" x2="139.7191" y2="21.0849" gradientTransform="matrix(1 0 0 -1 0 488.9897)">
		<stop  offset="0" style="stop-color:#00EFD1"/>
		<stop  offset="1" style="stop-color:#00ACEA"/>
	</linearGradient>
	<path style="fill:url(#SVGID_2_);" d="M190.843,218.211l-36.982-36.981l36.982-36.982L176.7,130.106l-36.981,36.981l-36.981-36.981
		l-14.143,14.142l36.982,36.982l-36.982,36.982l14.143,14.141l36.981-36.981l36.981,36.982L190.843,218.211z"/>
	
		<linearGradient id="SVGID_3_" gradientUnits="userSpaceOnUse" x1="347.2691" y1="495.0269" x2="347.2691" y2="21.0849" gradientTransform="matrix(1 0 0 -1 0 488.9897)">
		<stop  offset="0" style="stop-color:#00EFD1"/>
		<stop  offset="1" style="stop-color:#00ACEA"/>
	</linearGradient>
	<path style="fill:url(#SVGID_3_);" d="M384.251,130.106l-36.982,36.981l-36.981-36.981l-14.143,14.142l36.982,36.982
		l-36.982,36.981l14.143,14.143l36.981-36.982l36.982,36.982l14.142-14.143l-36.981-36.981l36.981-36.982L384.251,130.106z"/>
	
		<linearGradient id="SVGID_4_" gradientUnits="userSpaceOnUse" x1="243.4941" y1="495.0269" x2="243.4941" y2="21.0849" gradientTransform="matrix(1 0 0 -1 0 488.9897)">
		<stop  offset="0" style="stop-color:#00EFD1"/>
		<stop  offset="1" style="stop-color:#00ACEA"/>
	</linearGradient>
	<path style="fill:url(#SVGID_4_);" d="M243.494,259.439c-48.508,0-87.831,39.323-87.831,87.831s39.323,87.831,87.831,87.831
		s87.831-39.323,87.831-87.831l0,0C331.27,298.785,291.979,259.494,243.494,259.439z M243.494,415.101
		c-37.462,0-67.831-30.369-67.831-67.831s30.369-67.831,67.831-67.831c37.462,0,67.831,30.369,67.831,67.831c0,0,0,0,0,0
		C311.283,384.714,280.939,415.058,243.494,415.101z"/>
</g>
<g>
</g>
<g>
</g>
<g>
</g>
<g>
</g>
<g>
</g>
<g>
</g>
<g>
</g>
<g>
</g>
<g>
</g>
<g>
</g>
<g>
</g>
<g>
</g>
<g>
</g>
<g>
</g>
<g>
</g>
</svg>
